<svg id="icons_Q2" data-name="icons Q2" xmlns="http://www.w3.org/2000/svg" width="46" height="46" viewBox="0 0 46 46">
  <path id="Path_14" data-name="Path 14" d="M25,2A22.9,22.9,0,1,0,41.294,8.706,23,23,0,0,0,25,2ZM36.186,15.277l-7,13.9-13.9,7a1.15,1.15,0,0,1-1.464-1.464l7-13.9,13.9-7a1.15,1.15,0,0,1,1.464,1.464ZM25,22.909A2.091,2.091,0,1,0,27.091,25,2.091,2.091,0,0,0,25,22.909Z" transform="translate(-2 -2)" fill="#fff"/>
  <path id="Path_15" data-name="Path 15" d="M24,22a2,2,0,1,0,2,2A2,2,0,0,0,24,22Zm0,0a2,2,0,1,0,2,2A2,2,0,0,0,24,22Z" transform="translate(-1 -1)" fill="#fff"/>
</svg>
