<svg id="Component_1_1" data-name="Component 1 – 1" xmlns="http://www.w3.org/2000/svg" width="54" height="54" viewBox="0 0 54 54">
  <g id="Layer_2" data-name="Layer 2">
    <g id="invisible_box" data-name="invisible box">
      <path id="Path_5" data-name="Path 5" d="M0,0V54H54V0ZM16.425,34.425A2.25,2.25,0,0,1,18,33.75h9A2.25,2.25,0,0,1,29.25,36,2.362,2.362,0,0,1,27,38.25H18a2.228,2.228,0,0,1-1.575-3.825ZM15.75,27A2.363,2.363,0,0,1,18,24.75H36A2.25,2.25,0,0,1,38.25,27,2.362,2.362,0,0,1,36,29.25H18A2.25,2.25,0,0,1,15.75,27Zm21.825-7.425A2.25,2.25,0,0,1,36,20.25H18A2.25,2.25,0,0,1,15.75,18,2.363,2.363,0,0,1,18,15.75H36a2.228,2.228,0,0,1,1.575,3.825Z" fill="none"/>
      <path id="Path_6" data-name="Path 6" d="M0,0V54H54V0ZM16.425,34.425A2.25,2.25,0,0,1,18,33.75h9A2.25,2.25,0,0,1,29.25,36,2.362,2.362,0,0,1,27,38.25H18a2.228,2.228,0,0,1-1.575-3.825ZM15.75,27A2.363,2.363,0,0,1,18,24.75H36A2.25,2.25,0,0,1,38.25,27,2.362,2.362,0,0,1,36,29.25H18A2.25,2.25,0,0,1,15.75,27Zm21.825-7.425A2.25,2.25,0,0,1,36,20.25H18A2.25,2.25,0,0,1,15.75,18,2.363,2.363,0,0,1,18,15.75H36a2.228,2.228,0,0,1,1.575,3.825Z" fill="none"/>
    </g>
    <g id="icons_Q2" data-name="icons Q2" transform="translate(6 3)">
      <path id="Path_7" data-name="Path 7" d="M45.667,3H8.333A2.31,2.31,0,0,0,6,5.286V48.714A2.31,2.31,0,0,0,8.333,51H45.667A2.31,2.31,0,0,0,48,48.714V5.286A2.31,2.31,0,0,0,45.667,3ZM28.633,37.743A2.357,2.357,0,0,1,27,38.429H17.667a2.31,2.31,0,0,1-2.333-2.286,2.425,2.425,0,0,1,2.333-2.286H27a2.31,2.31,0,0,1,2.333,2.286,2.263,2.263,0,0,1-.7,1.6ZM37.967,28.6a2.357,2.357,0,0,1-1.633.686H17.667A2.31,2.31,0,0,1,15.333,27a2.425,2.425,0,0,1,2.333-2.286H36.333A2.31,2.31,0,0,1,38.667,27a2.263,2.263,0,0,1-.7,1.6Zm0-9.143a2.357,2.357,0,0,1-1.633.686H17.667a2.31,2.31,0,0,1-2.333-2.286,2.425,2.425,0,0,1,2.333-2.286H36.333a2.31,2.31,0,0,1,2.333,2.286,2.263,2.263,0,0,1-.7,1.6Z" transform="translate(-6 -3)" fill="#fff"/>
    </g>
  </g>
</svg>
