<svg id="icons_Q2" data-name="icons Q2" xmlns="http://www.w3.org/2000/svg" width="42.39" height="44" viewBox="0 0 42.39 44">
  <g id="Group_1" data-name="Group 1">
    <path id="Path_8" data-name="Path 8" d="M27.195,3C19.355,3,13,7.925,13,14s6.355,11,14.195,11S41.39,20.075,41.39,14,35.034,3,27.195,3Z" transform="translate(-6 -3)" fill="#fff"/>
    <path id="Path_9" data-name="Path 9" d="M46.035,45H8.355A2.2,2.2,0,0,1,6,43V34.5l1.06-.6A42.888,42.888,0,0,1,27.195,29,41.757,41.757,0,0,1,47.33,34l1.06.5V43A2.2,2.2,0,0,1,46.035,45ZM10.71,41H43.68V36.8A36.872,36.872,0,0,0,27.195,33,38.144,38.144,0,0,0,10.71,36.7Z" transform="translate(-6 -1)" fill="#fff"/>
    <path id="Path_10" data-name="Path 10" d="M46.035,45H8.355A2.2,2.2,0,0,1,6,43V34.5l1.06-.6A42.888,42.888,0,0,1,27.195,29,41.757,41.757,0,0,1,47.33,34l1.06.5V43A2.2,2.2,0,0,1,46.035,45Z" transform="translate(-6 -1)" fill="#fff"/>
  </g>
</svg>
